# xmcd
#
# Track frame offsets:
#	150
#	13800
#	26970
#	43187
#	55437
#	65610
#	82412
#	100502
#	115587
#	128875
#	142002
#	155535
#	166382
#	180605
#	193437
#	206730
#	222252
#	236262
#
# Disc length: 3306 seconds
#
# Revision: 1
# Processed by: cddbd v1.5.2PL0 Copyright (c) Steve Scherf et al.
# Submitted via: audiograbber 1.83.01
#
DISCID=120ce812
DTITLE=Branson Entertainment - The Best Of Branson
DYEAR=1993
DGENRE=Country
TTITLE0=The Gatlin Brothers - Moments To Remember
TTITLE1=Roy Clark - Come Live With Me
TTITLE2=Mickey Gilley - Stand By Me
TTITLE3=Crystal Gayle - Don't It Make My Brown Eyes Blue
TTITLE4=Mel McDaniel - Lousiana Saturday Night
TTITLE5=Janie Fricke - It Ain't Easy Being Easy
TTITLE6=The Gatlin Brothers - Paper Doll
TTITLE7=Roy Clark - Yesterday When I Was Young
TTITLE8=Mickey Gilley - Room Full Of Roses
TTITLE9=Crystal Gayle - Talkin' In Your Sleep
TTITLE10=Mel McDaniel - Baby's Got Her Blue Jeans On
TTITLE11=Janie Fricke - She's Single Again
TTITLE12=Roy Clark - The Tips Of My Fingers
TTITLE13=Janie Fricke - He's A Heartache
TTITLE14=Mickey Gilley - Don't The Girls All Get Prettier At Closing Time
TTITLE15=Mel McDaniel - Hello Daddy, Good Morning Darlin'
TTITLE16=The Gatlin Brothers - Three Coins In The Fountain
TTITLE17=Crystal Gayle - Always
EXTD=
EXTT0=
EXTT1=
EXTT2=
EXTT3=
EXTT4=
EXTT5=
EXTT6=
EXTT7=
EXTT8=
EXTT9=
EXTT10=
EXTT11=
EXTT12=
EXTT13=
EXTT14=
EXTT15=
EXTT16=
EXTT17=
PLAYORDER=
